<?xml version="1.0" encoding="UTF-8"?>
<svg xmlns="http://www.w3.org/2000/svg" xmlns:xlink="http://www.w3.org/1999/xlink" width="25px" height="25px" viewBox="0 0 25 25" version="1.1">
<g id="surface1">
<path style=" stroke:none;fill-rule:nonzero;fill:rgb(100%,100%,100%);fill-opacity:1;" d="M 24.039062 12.5 C 24.039062 18.871094 18.871094 24.039062 12.5 24.039062 C 6.128906 24.039062 0.960938 18.871094 0.960938 12.5 C 0.960938 6.128906 6.128906 0.960938 12.5 0.960938 C 18.871094 0.960938 24.039062 6.128906 24.039062 12.5 Z M 24.039062 12.5 "/>
<path style=" stroke:none;fill-rule:nonzero;fill:rgb(14.901961%,77.647059%,85.490196%);fill-opacity:1;" d="M 20.914062 12.5 C 20.914062 17.148438 17.148438 20.914062 12.5 20.914062 C 7.851562 20.914062 4.085938 17.148438 4.085938 12.5 C 4.085938 7.851562 7.851562 4.085938 12.5 4.085938 C 17.148438 4.085938 20.914062 7.851562 20.914062 12.5 Z M 20.914062 12.5 "/>
<path style=" stroke:none;fill-rule:nonzero;fill:rgb(50.196078%,87.058824%,91.764706%);fill-opacity:1;" d="M 12.5 0.960938 C 6.128906 0.960938 0.960938 6.128906 0.960938 12.5 C 0.960938 18.871094 6.128906 24.039062 12.5 24.039062 C 18.871094 24.039062 24.039062 18.871094 24.039062 12.5 C 24.039062 6.128906 18.871094 0.960938 12.5 0.960938 Z M 12.5 23.117188 C 6.636719 23.117188 1.882812 18.363281 1.882812 12.5 C 1.882812 6.636719 6.636719 1.882812 12.5 1.882812 C 18.363281 1.882812 23.117188 6.636719 23.117188 12.5 C 23.109375 18.359375 18.359375 23.109375 12.5 23.117188 Z M 12.5 23.117188 "/>
<path style=" stroke:none;fill-rule:nonzero;fill:rgb(50.196078%,87.058824%,91.764706%);fill-opacity:1;" d="M 12.5 24.039062 C 9.769531 24.039062 6.296875 18.605469 6.296875 12.5 C 6.296875 6.394531 9.769531 0.960938 12.5 0.960938 C 15.230469 0.960938 18.703125 6.394531 18.703125 12.5 C 18.703125 18.605469 15.230469 24.039062 12.5 24.039062 Z M 12.5 1.921875 C 10.707031 1.921875 7.257812 6.390625 7.257812 12.5 C 7.257812 18.609375 10.707031 23.078125 12.5 23.078125 C 14.292969 23.078125 17.742188 18.609375 17.742188 12.5 C 17.742188 6.390625 14.292969 1.921875 12.5 1.921875 Z M 12.5 1.921875 "/>
<path style=" stroke:none;fill-rule:nonzero;fill:rgb(50.196078%,87.058824%,91.764706%);fill-opacity:1;" d="M 12.019531 0.960938 L 12.980469 0.960938 L 12.980469 24.039062 L 12.019531 24.039062 Z M 12.019531 0.960938 "/>
<path style=" stroke:none;fill-rule:nonzero;fill:rgb(50.196078%,87.058824%,91.764706%);fill-opacity:1;" d="M 0.960938 12.019531 L 24.039062 12.019531 L 24.039062 12.980469 L 0.960938 12.980469 Z M 0.960938 12.019531 "/>
<path style=" stroke:none;fill-rule:nonzero;fill:rgb(50.196078%,87.058824%,91.764706%);fill-opacity:1;" d="M 12.5 7.691406 C 6.3125 7.691406 4.171875 5.0625 4.085938 4.953125 L 4.902344 4.328125 C 4.902344 4.328125 6.871094 6.671875 12.5 6.671875 C 18.128906 6.671875 20.078125 4.328125 20.097656 4.328125 L 20.914062 4.953125 C 20.828125 5.0625 18.6875 7.691406 12.5 7.691406 Z M 12.5 7.691406 "/>
<path style=" stroke:none;fill-rule:nonzero;fill:rgb(50.196078%,87.058824%,91.764706%);fill-opacity:1;" d="M 12.5 17.308594 C 6.3125 17.308594 4.171875 19.9375 4.085938 20.046875 L 4.902344 20.671875 C 4.902344 20.671875 6.871094 18.328125 12.5 18.328125 C 18.128906 18.328125 20.078125 20.671875 20.097656 20.671875 L 20.914062 20.046875 C 20.828125 19.9375 18.6875 17.308594 12.5 17.308594 Z M 12.5 17.308594 "/>
</g>
</svg>
