<?xml version="1.0" encoding="UTF-8"?>
<svg xmlns="http://www.w3.org/2000/svg" xmlns:xlink="http://www.w3.org/1999/xlink" width="25px" height="25px" viewBox="0 0 25 25" version="1.1">
<g id="surface1">
<path style=" stroke:none;fill-rule:nonzero;fill:rgb(10.588235%,50.196078%,89.411765%);fill-opacity:1;" d="M 0.847656 8.117188 L 6.058594 8.117188 L 6.058594 24.183594 L 0.847656 24.183594 Z M 0.847656 8.117188 "/>
<path style=" stroke:none;fill-rule:nonzero;fill:rgb(10.588235%,50.196078%,89.411765%);fill-opacity:1;" d="M 20.253906 8.308594 C 20.199219 8.289062 20.144531 8.269531 20.085938 8.253906 C 20.015625 8.238281 19.949219 8.226562 19.875 8.214844 C 19.601562 8.160156 19.296875 8.121094 18.941406 8.121094 C 15.902344 8.121094 13.976562 10.335938 13.34375 11.191406 L 13.34375 8.117188 L 8.132812 8.117188 L 8.132812 24.183594 L 13.34375 24.183594 L 13.34375 15.421875 C 13.34375 15.421875 17.28125 9.921875 18.941406 13.960938 L 18.941406 24.183594 L 24.152344 24.183594 L 24.152344 13.34375 C 24.152344 10.914062 22.492188 8.894531 20.253906 8.308594 Z M 20.253906 8.308594 "/>
<path style=" stroke:none;fill-rule:nonzero;fill:rgb(10.588235%,50.196078%,89.411765%);fill-opacity:1;" d="M 5.945312 3.375 C 5.945312 4.785156 4.804688 5.929688 3.398438 5.929688 C 1.992188 5.929688 0.847656 4.785156 0.847656 3.375 C 0.847656 1.960938 1.992188 0.816406 3.398438 0.816406 C 4.804688 0.816406 5.945312 1.960938 5.945312 3.375 Z M 5.945312 3.375 "/>
</g>
</svg>
